<svg xmlns="http://www.w3.org/2000/svg" xmlns:xlink="http://www.w3.org/1999/xlink" width="50" zoomAndPan="magnify" viewBox="0 0 37.5 37.499999" height="50" preserveAspectRatio="xMidYMid meet" version="1.0"><defs><g/></defs><g fill="#000000" fill-opacity="1"><g transform="translate(29.425093, 2.588686)"><g><path d="M -16.265625 9.867188 L -16.265625 20.304688 C -16.265625 23.011719 -17.96875 25.289062 -20.347656 26.191406 L -20.347656 29.984375 C -15.9375 28.917969 -12.613281 24.835938 -12.613281 20.304688 L -12.613281 10.007812 C -12.613281 8.738281 -11.730469 7.648438 -10.398438 7.648438 C -9.046875 7.648438 -8.203125 8.65625 -8.140625 9.867188 C -8.164062 11.894531 -10.707031 12.839844 -12.121094 11.507812 L -12.121094 15.464844 C -11.609375 15.667969 -11.015625 15.710938 -10.398438 15.710938 C -7.15625 15.710938 -4.53125 13.066406 -4.53125 9.867188 C -4.53125 6.664062 -7.15625 4 -10.398438 4 C -13.679688 4 -16.265625 6.664062 -16.265625 9.867188 Z M -10.398438 19.8125 C -4.902344 19.8125 -0.410156 15.21875 -0.410156 9.867188 C -0.410156 4.367188 -4.902344 -0.0820312 -10.398438 -0.0820312 C -15.894531 -0.0820312 -20.347656 4.367188 -20.347656 9.867188 L -20.347656 25.679688 C -18.234375 24.816406 -16.757812 22.644531 -16.757812 20.304688 L -16.757812 9.867188 C -16.757812 6.417969 -13.886719 3.507812 -10.398438 3.507812 C -6.910156 3.507812 -4.039062 6.417969 -4.039062 9.867188 C -4.039062 13.289062 -6.933594 16.222656 -10.398438 16.222656 C -11.015625 16.222656 -11.609375 16.078125 -12.121094 15.957031 L -12.121094 19.648438 C -11.609375 19.773438 -11.015625 19.8125 -10.398438 19.8125 Z M -10.398438 19.8125 "/></g></g></g></svg>