<svg xmlns="http://www.w3.org/2000/svg" xmlns:xlink="http://www.w3.org/1999/xlink" width="100" zoomAndPan="magnify" viewBox="0 0 75 74.999997" height="100" preserveAspectRatio="xMidYMid meet" version="1.0"><defs><g/></defs><g fill="#000000" fill-opacity="1"><g transform="translate(58.850189, 5.189087)"><g><path d="M -32.527344 19.730469 L -32.527344 40.609375 C -32.527344 46.023438 -35.933594 50.578125 -40.691406 52.382812 L -40.691406 59.972656 C -31.871094 57.839844 -25.226562 49.675781 -25.226562 40.609375 L -25.226562 20.019531 C -25.226562 17.476562 -23.464844 15.300781 -20.796875 15.300781 C -18.089844 15.300781 -16.40625 17.3125 -16.285156 19.730469 C -16.324219 23.792969 -21.414062 25.679688 -24.242188 23.011719 L -24.242188 30.929688 C -23.21875 31.339844 -22.027344 31.421875 -20.796875 31.421875 C -14.316406 31.421875 -9.066406 26.128906 -9.066406 19.730469 C -9.066406 13.332031 -14.316406 8 -20.796875 8 C -27.359375 8 -32.527344 13.332031 -32.527344 19.730469 Z M -20.796875 39.625 C -9.804688 39.625 -0.820312 30.4375 -0.820312 19.730469 C -0.820312 8.738281 -9.804688 -0.164062 -20.796875 -0.164062 C -31.789062 -0.164062 -40.691406 8.738281 -40.691406 19.730469 L -40.691406 51.359375 C -36.46875 49.632812 -33.511719 45.285156 -33.511719 40.609375 L -33.511719 19.730469 C -33.511719 12.839844 -27.769531 7.015625 -20.796875 7.015625 C -13.824219 7.015625 -8.082031 12.839844 -8.082031 19.730469 C -8.082031 26.582031 -13.863281 32.445312 -20.796875 32.445312 C -22.027344 32.445312 -23.21875 32.160156 -24.242188 31.914062 L -24.242188 39.296875 C -23.21875 39.542969 -22.027344 39.625 -20.796875 39.625 Z M -20.796875 39.625 "/></g></g></g></svg>