<svg xmlns="http://www.w3.org/2000/svg" xmlns:xlink="http://www.w3.org/1999/xlink" width="500" zoomAndPan="magnify" viewBox="0 0 375 374.999991" height="500" preserveAspectRatio="xMidYMid meet" version="1.0"><defs><clipPath id="768ebfa823"><path d="M 37.5 14 L 355 14 L 355 375 L 37.5 375 Z M 37.5 14 " clip-rule="nonzero"/></clipPath></defs><rect x="-37.5" width="450" fill="#ffffff" y="-37.499999" height="449.999989" fill-opacity="1"/><rect x="-37.5" width="450" fill="#ffffff" y="-37.499999" height="449.999989" fill-opacity="1"/><rect x="-37.5" width="450" fill="#ffffff" y="-37.499999" height="449.999989" fill-opacity="1"/><g clip-path="url(#768ebfa823)"><path fill="#a6a6a6" d="M 354.191406 285.449219 L 354.191406 106.84375 C 354.191406 105.671875 353.574219 104.550781 352.535156 103.960938 L 197.542969 14.527344 C 196.5 13.9375 195.242188 13.9375 194.203125 14.527344 L 39.183594 103.960938 C 38.113281 104.550781 37.5 105.671875 37.5 106.84375 L 37.5 285.449219 C 37.5 286.625 38.113281 287.746094 39.15625 288.335938 L 194.175781 377.769531 C 194.710938 378.0625 195.269531 378.222656 195.832031 378.222656 C 196.394531 378.222656 196.980469 378.089844 197.488281 377.769531 L 352.480469 288.335938 C 353.550781 287.746094 354.191406 286.652344 354.191406 285.449219 Z M 44.179688 112.640625 L 192.625 198.015625 L 192.625 369.171875 L 44.179688 283.527344 Z M 199.304688 369.039062 L 199.304688 197.882812 L 347.511719 112.613281 L 347.511719 283.503906 Z M 199.304688 369.039062 " fill-opacity="1" fill-rule="nonzero"/></g></svg>