<svg xmlns="http://www.w3.org/2000/svg" xmlns:xlink="http://www.w3.org/1999/xlink" width="500" zoomAndPan="magnify" viewBox="0 0 375 374.999991" height="500" preserveAspectRatio="xMidYMid meet" version="1.0"><defs><clipPath id="246c487ae6"><path d="M 8 45.117188 L 367 45.117188 L 367 330 L 8 330 Z M 8 45.117188 " clip-rule="nonzero"/></clipPath></defs><g clip-path="url(#246c487ae6)"><path fill="#323030" d="M 48.226562 280.722656 L 184.757812 329.128906 C 185.042969 329.128906 185.328125 329.414062 185.613281 329.414062 C 186.179688 329.699219 187.035156 329.699219 187.601562 329.699219 C 188.171875 329.699219 188.457031 329.699219 189.027344 329.699219 C 189.027344 329.699219 189.027344 329.699219 189.308594 329.699219 C 189.59375 329.699219 190.164062 329.414062 190.449219 329.414062 L 326.980469 281.007812 C 330.394531 279.871094 332.667969 276.453125 332.667969 273.035156 L 332.667969 177.082031 L 361.113281 167.117188 C 363.386719 166.261719 365.378906 164.269531 366.234375 161.992188 C 367.085938 159.710938 366.800781 156.867188 365.378906 154.585938 L 331.246094 97.640625 C 331.246094 97.640625 330.960938 97.355469 330.960938 97.355469 C 330.960938 97.070312 330.675781 97.070312 330.675781 96.785156 C 330.675781 96.503906 330.394531 96.503906 330.394531 96.21875 C 330.394531 96.21875 330.394531 96.21875 330.394531 95.933594 C 330.109375 95.648438 330.109375 95.648438 329.824219 95.363281 C 329.824219 95.363281 329.539062 95.078125 329.539062 95.078125 C 329.539062 95.078125 329.253906 94.792969 329.253906 94.792969 C 329.253906 94.792969 328.972656 94.792969 328.972656 94.792969 C 328.972656 94.792969 328.6875 94.507812 328.6875 94.507812 C 328.402344 94.222656 328.117188 94.222656 327.832031 94.222656 C 327.546875 94.222656 327.546875 93.941406 327.265625 93.941406 L 190.730469 45.535156 C 190.730469 45.535156 190.730469 45.535156 190.449219 45.535156 C 190.449219 45.535156 190.164062 45.535156 190.164062 45.535156 C 190.164062 45.535156 189.878906 45.535156 189.878906 45.535156 C 189.59375 45.535156 189.59375 45.535156 189.308594 45.535156 C 189.027344 45.535156 189.027344 45.535156 188.742188 45.535156 C 188.457031 45.535156 188.457031 45.535156 188.171875 45.535156 C 187.886719 45.535156 187.601562 45.535156 187.035156 45.535156 C 186.75 45.535156 186.75 45.535156 186.464844 45.535156 C 185.898438 45.535156 185.328125 45.820312 185.042969 45.820312 L 48.511719 94.222656 C 47.941406 94.507812 47.65625 94.507812 47.089844 94.792969 C 47.089844 94.792969 46.804688 95.078125 46.804688 95.078125 C 46.519531 95.363281 46.234375 95.363281 45.953125 95.648438 C 45.953125 95.648438 45.667969 95.933594 45.667969 95.933594 C 45.382812 96.21875 45.097656 96.21875 45.097656 96.503906 C 45.097656 96.503906 44.8125 96.785156 44.8125 96.785156 C 44.527344 97.070312 44.527344 97.355469 44.246094 97.355469 C 44.246094 97.355469 44.246094 97.640625 43.960938 97.640625 L 9.828125 154.585938 C 7.835938 157.71875 8.121094 161.707031 10.394531 164.269531 C 12.101562 166.261719 14.378906 167.398438 16.9375 167.398438 C 17.792969 167.398438 18.929688 167.117188 19.78125 166.832031 L 42.539062 158.859375 L 42.539062 272.75 C 42.539062 276.453125 44.8125 279.585938 48.226562 280.722656 Z M 345.46875 154.300781 L 225.433594 197.011719 L 200.117188 154.871094 L 320.152344 112.164062 Z M 196.136719 65.464844 L 298.535156 101.910156 L 196.136719 138.359375 Z M 196.136719 181.066406 L 214.339844 211.535156 C 216.046875 214.382812 218.890625 215.804688 221.734375 215.804688 C 222.589844 215.804688 223.726562 215.519531 224.582031 215.234375 L 315.601562 183.0625 L 315.601562 266.773438 L 196.136719 309.195312 Z M 59.605469 113.871094 L 179.070312 156.296875 L 179.070312 308.910156 L 59.605469 266.488281 Z M 59.605469 113.871094 " fill-opacity="1" fill-rule="nonzero"/></g></svg>