<?xml version="1.0" standalone="no"?>
<!DOCTYPE svg PUBLIC "-//W3C//DTD SVG 20010904//EN"
 "http://www.w3.org/TR/2001/REC-SVG-20010904/DTD/svg10.dtd">
<svg version="1.0" xmlns="http://www.w3.org/2000/svg"
 width="7pt" height="7pt" viewBox="0 0 300.000000 300.000000"
 preserveAspectRatio="xMidYMid meet">
<metadata>
Created by potrace 1.10, written by Peter Selinger 2001-2011
</metadata>
<g transform="translate(0.000000,300.000000) scale(0.100000,-0.100000)"
fill="#000000" stroke="none">
<path d="M1420 2164 c-36 -13 -117 -43 -180 -64 -63 -22 -117 -44 -121 -48
-18 -19 -99 -158 -99 -170 0 -21 26 -25 59 -8 l31 16 2 -162 3 -163 194 -68
194 -69 193 68 194 68 0 137 0 137 43 15 c54 18 54 32 -3 129 l-45 76 -188 66
c-103 36 -193 66 -200 65 -6 0 -41 -12 -77 -25z m71 -98 c-2 -63 1 -93 13
-117 19 -37 11 -57 -13 -35 -10 9 -82 39 -161 67 -80 27 -145 51 -147 53 -2 1
7 8 20 14 26 14 268 101 282 101 6 1 9 -31 6 -83z m55 65 c5 -5 25 -14 44 -19
19 -6 69 -22 110 -37 41 -14 82 -28 90 -31 8 -3 -41 -25 -110 -49 -69 -23
-132 -46 -140 -49 -13 -5 -15 9 -15 94 0 99 2 109 21 91z m-241 -176 c82 -30
155 -55 162 -55 10 0 13 -46 13 -209 l0 -209 -137 50 c-76 28 -148 54 -160 59
-23 8 -23 11 -23 198 0 104 -3 196 -6 205 -3 9 -5 16 -3 16 2 0 71 -25 154
-55z m584 5 c17 -28 31 -54 31 -58 0 -4 -39 -21 -87 -36 -49 -16 -120 -41
-160 -56 l-72 -28 -33 57 -33 56 155 57 c85 31 158 57 162 57 3 1 20 -22 37
-49z m-769 -15 c0 -28 -4 -35 -20 -35 -24 0 -24 3 -5 40 20 39 25 38 25 -5z
m435 -165 c14 -27 26 -50 28 -50 1 0 54 18 117 41 63 23 122 43 130 46 13 3
15 -13 14 -108 l-2 -112 -133 -47 c-74 -26 -145 -52 -159 -57 l-25 -11 0 174
c0 96 1 174 2 174 1 0 14 -22 28 -50z"/>
<path d="M250 1270 l0 -40 55 0 55 0 0 -150 0 -150 51 0 50 0 -3 150 -3 150
55 0 56 0 -4 40 -4 40 -154 0 -154 0 0 -40z m184 -8 c3 -5 -2 -19 -10 -31 -15
-21 -17 -21 -30 -4 -7 10 -14 24 -14 31 0 13 46 17 54 4z"/>
<path d="M650 1120 l0 -190 50 0 50 0 0 83 0 82 65 0 65 0 0 -82 0 -83 50 0
50 0 0 190 0 190 -50 0 -50 0 0 -70 0 -70 -65 0 -65 0 0 70 0 70 -50 0 -50 0
0 -190z m100 5 c0 -1 -11 -12 -25 -25 l-25 -23 0 58 0 59 25 -34 c14 -19 25
-34 25 -35z m180 8 c0 -55 0 -56 -20 -38 -11 10 -20 24 -20 32 0 12 30 62 38
63 1 0 2 -25 2 -57z"/>
<path d="M1100 1120 l0 -190 145 0 145 0 0 40 0 40 -95 0 -95 0 0 40 0 40 85
0 85 0 0 35 0 35 -84 0 -84 0 -4 35 -4 35 98 0 98 0 0 40 0 40 -145 0 -145 0
0 -190z m65 109 c-9 -16 -17 -29 -18 -29 -6 0 -1 46 6 58 17 25 27 0 12 -29z
m25 -104 c0 -4 -9 -18 -19 -31 -16 -20 -20 -21 -25 -8 -8 21 -8 79 0 87 7 6
44 -35 44 -48z m-10 -151 c0 -2 -6 -4 -14 -4 -18 0 -26 22 -19 50 5 21 7 20
19 -10 8 -18 14 -34 14 -36z"/>
<path d="M1680 1120 l0 -190 138 0 138 0 27 28 c23 24 27 37 27 83 0 43 -5 60
-20 74 -14 13 -17 22 -10 29 5 5 10 32 10 60 0 41 -5 55 -27 78 -27 28 -28 28
-155 28 l-128 0 0 -190z m71 127 c-16 -16 -13 -78 5 -98 15 -16 15 -20 0 -41
-19 -26 -21 -99 -4 -116 6 -6 9 -15 5 -19 -20 -19 -29 24 -29 145 -1 128 4
158 24 146 6 -4 6 -10 -1 -17z m144 -47 l0 -35 -57 -3 -58 -3 0 41 0 41 58 -3
57 -3 0 -35z m48 -99 c-1 -2 -9 4 -18 12 -13 14 -14 20 -3 37 12 20 13 19 18
-12 3 -18 5 -35 3 -37z m-38 -51 l0 -45 -62 -3 -63 -3 0 51 0 51 63 -3 62 -3
0 -45z"/>
<path d="M2104 1275 c0 -30 3 -35 23 -35 23 0 23 -1 23 -120 0 -119 0 -120
-23 -120 -20 0 -23 -5 -23 -35 l0 -35 88 0 88 0 0 35 c0 28 -4 35 -20 35 -19
0 -20 7 -20 120 0 113 1 120 20 120 16 0 20 7 20 35 l0 35 -88 0 -88 0 0 -35z
m110 -14 c3 -5 -1 -15 -10 -22 -13 -10 -17 -10 -24 1 -5 8 -6 18 -4 22 7 11
31 10 38 -1z m-5 -264 c13 -16 5 -27 -21 -27 -20 0 -21 1 -12 24 7 20 18 20
33 3z"/>
<path d="M2390 1120 l0 -190 45 0 45 0 0 115 c0 63 3 115 8 115 4 0 36 -52 71
-115 l63 -115 44 0 44 0 0 190 0 190 -46 0 -47 0 5 -115 c2 -63 1 -115 -4
-115 -4 0 -8 5 -8 12 0 6 -26 58 -57 114 l-58 104 -52 0 -53 0 0 -190z m103
111 c21 -35 21 -41 4 -41 -8 0 -22 -9 -32 -20 -28 -30 -35 -24 -35 28 0 75 29
90 63 33z m177 -191 c0 -73 -19 -81 -49 -21 l-20 38 24 11 c14 7 25 16 25 22
0 5 5 10 10 10 6 0 10 -27 10 -60z"/>
</g>
</svg>
